<svg xmlns="http://www.w3.org/2000/svg" width="512" height="512" viewBox="0 0 512 512" version="1.1">
	<path d="M 230 1.535 C 195.670 5.441, 168.246 13.660, 138.474 28.964 C 90.574 53.587, 50.600 94.265, 27.104 142.294 C 10.636 175.957, 1.514 211.667, 0.483 246.500 C 0.185 256.561, 1.802 286.134, 3.075 293.893 C 8.136 324.759, 16.036 348.945, 29.463 374.683 C 64.688 442.209, 130.108 491.756, 203.500 506.494 C 224.495 510.710, 232.661 511.486, 256 511.486 C 279.339 511.486, 287.505 510.710, 308.500 506.494 C 381.866 491.762, 447.318 442.190, 482.538 374.683 C 489.017 362.264, 497.496 341.909, 500.317 332 C 506.957 308.679, 509.909 292.279, 510.397 276 C 510.586 269.675, 510.553 267.088, 510.323 270.250 C 510.093 273.413, 509.476 276, 508.952 276 C 508.429 276, 508 279.600, 508 284 C 508 288.667, 507.583 292, 507 292 C 506.444 292, 506 294.667, 506 298 C 506 301.333, 505.556 304, 505 304 C 504.450 304, 504 305.800, 504 308 C 504 310.200, 503.550 312, 503 312 C 502.450 312, 502 313.800, 502 316 C 502 318.200, 501.550 320, 501 320 C 500.450 320, 500 321.800, 500 324 C 500 326.200, 499.550 328, 499 328 C 498.450 328, 498 329.350, 498 331 C 498 332.650, 497.550 334, 497 334 C 496.450 334, 496 335.350, 496 337 C 496 338.650, 495.550 340, 495 340 C 494.450 340, 494 341.350, 494 343 C 494 344.650, 493.550 346, 493 346 C 492.450 346, 492 346.900, 492 348 C 492 349.100, 491.550 350, 491 350 C 490.450 350, 490 350.900, 490 352 C 490 353.100, 489.550 354, 489 354 C 488.450 354, 488 354.900, 488 356 C 488 357.100, 487.550 358, 487 358 C 486.450 358, 486 359.350, 486 361 C 486 362.650, 485.550 364, 485 364 C 484.450 364, 484 364.719, 484 365.599 C 484 366.478, 482.566 368.537, 480.813 370.174 C 478.285 372.536, 477.917 373.331, 479.031 374.019 C 480.175 374.726, 480.023 375.245, 478.218 376.811 C 476.998 377.869, 476 379.469, 476 380.367 C 476 381.265, 475.550 382, 475 382 C 474.450 382, 474 382.900, 474 384 C 474 385.333, 473.333 386, 472 386 C 469.794 386, 469.277 387.574, 471.250 388.282 C 472.098 388.586, 471.776 389.375, 470.250 390.733 C 469.012 391.834, 468 393.370, 468 394.147 C 468 394.923, 467.100 396.207, 466 397 C 464.900 397.793, 464 399.143, 464 400 C 464 400.857, 463.100 402.207, 462 403 C 460.900 403.793, 460 405.062, 460 405.820 C 460 406.577, 458.650 408.459, 457 410 C 455.350 411.541, 454 413.322, 454 413.957 C 454 414.591, 451.300 417.761, 448 421 C 444.700 424.239, 442 427.372, 442 427.963 C 442 429.369, 429.361 442, 427.954 442 C 427.358 442, 424.679 444.250, 422 447 C 419.118 449.959, 416.247 452, 414.966 452 C 413.776 452, 411.541 453.350, 410 455 C 408.277 456.845, 406.197 458, 404.599 458 C 403.169 458, 402 458.450, 402 459 C 402 459.550, 401.100 460, 400 460 C 398.900 460, 398 460.450, 398 461 C 398 461.550, 397.265 462, 396.367 462 C 395.469 462, 393.834 463.012, 392.733 464.250 C 391.375 465.776, 390.586 466.098, 390.282 465.250 C 389.596 463.338, 386.613 463.762, 385 466 C 384.207 467.100, 382.758 468, 381.779 468 C 379.747 468, 379.373 469.609, 381.250 470.280 C 381.938 470.525, 382.190 471.061, 381.811 471.469 C 381.431 471.878, 379.943 471.034, 378.502 469.593 C 376.184 467.275, 376.054 466.803, 377.370 465.487 C 378.188 464.669, 379.564 464, 380.429 464 C 381.293 464, 382 463.550, 382 463 C 382 462.450, 381.100 462, 380 462 C 378.900 462, 378 462.450, 378 463 C 378 463.550, 377.550 464, 377 464 C 376.450 464, 376 462.650, 376 461 C 376 458.067, 376.111 458, 381 458 C 385.333 458, 386 457.733, 386 456 C 386 454.900, 386.450 454, 387 454 C 387.550 454, 388 453.100, 388 452 C 388 450.900, 388.450 450, 389 450 C 389.550 450, 390 450.900, 390 452 C 390 453.100, 390.257 454, 390.571 454 C 391.665 454, 394 451.134, 394 449.792 C 394 449.049, 394.900 447.793, 396 447 C 397.100 446.207, 398 444.795, 398 443.863 C 398 442.930, 398.563 441.965, 399.250 441.718 C 400.081 441.420, 399.672 440.535, 398.032 439.078 C 395.950 437.230, 395.794 436.728, 397.032 435.868 C 398.144 435.095, 398.197 434.725, 397.250 434.341 C 396.448 434.015, 396 431.713, 396 427.917 C 396 422.667, 395.775 422, 394 422 C 392.203 422, 392 421.333, 392 415.429 C 392 410.624, 391.551 408.408, 390.330 407.188 C 389.116 405.973, 388.548 405.856, 388.247 406.759 C 387.089 410.234, 386 407.153, 386 400.401 C 386 393.248, 386.176 392.638, 389 390 C 390.650 388.459, 392 386.478, 392 385.599 C 392 384.719, 392.450 384, 393 384 C 393.550 384, 394 383.100, 394 382 C 394 380.900, 394.450 380, 395 380 C 395.550 380, 396 378.650, 396 377 C 396 375.350, 395.550 374, 395 374 C 394.450 374, 394 373.281, 394 372.401 C 394 371.522, 392.650 369.541, 391 368 C 389.350 366.459, 388 364.478, 388 363.599 C 388 362.719, 387.550 362, 387 362 C 386.450 362, 386 361.100, 386 360 C 386 358.667, 385.333 358, 384 358 C 381.794 358, 381.276 359.575, 383.250 360.280 C 383.938 360.525, 384.190 361.061, 383.811 361.469 C 382.882 362.469, 378 357.492, 378 355.545 C 378 354.695, 377.550 354, 377 354 C 376.450 354, 376 353.550, 376 353 C 376 351.216, 379.215 351.942, 381.139 354.160 C 382.170 355.349, 383.347 355.962, 383.756 355.523 C 384.165 355.085, 383.938 354.525, 383.250 354.280 C 379.783 353.042, 384.361 344, 388.455 344 C 389.333 344, 390 343.137, 390 342 C 390 340.900, 390.450 340, 391 340 C 391.550 340, 392 340.900, 392 342 C 392 343.556, 392.667 344, 395 344 C 397.667 344, 398 343.667, 398 341 C 398 338.333, 398.333 338, 401 338 C 403.833 338, 404 338.222, 404 342 C 404 344.200, 403.550 346, 403 346 C 402.450 346, 402 346.900, 402 348 C 402 349.100, 402.450 350, 403 350 C 403.550 350, 404 350.900, 404 352 C 404 353.100, 404.450 354, 405 354 C 405.550 354, 406 353.550, 406 353 C 406 352.450, 407.350 352, 409 352 C 410.650 352, 412 351.550, 412 351 C 412 350.450, 412.900 350, 414 350 C 415.251 350, 416 349.333, 416 348.221 C 416 347.242, 416.900 345.793, 418 345 C 419.100 344.207, 420 342.758, 420 341.779 C 420 340.801, 420.450 340, 421 340 C 421.550 340, 422 339.100, 422 338 C 422 336.900, 422.450 336, 423 336 C 423.550 336, 424 335.100, 424 334 C 424 332.900, 424.450 332, 425 332 C 425.550 332, 426 330.200, 426 328 C 426 325.800, 426.450 324, 427 324 C 427.550 324, 428 323.100, 428 322 C 428 320.900, 428.450 320, 429 320 C 429.550 320, 430 318.200, 430 316 C 430 313.800, 430.450 312, 431 312 C 431.556 312, 432 309.333, 432 306 C 432 302.667, 432.444 300, 433 300 C 433.550 300, 434 298.863, 434 297.474 C 434 295.815, 435.537 293.411, 438.474 290.474 C 442.039 286.908, 443.646 286, 446.390 286 C 448.284 286, 450.035 285.438, 450.282 284.750 C 450.586 283.902, 451.375 284.224, 452.733 285.750 C 455.326 288.665, 460 288.826, 460 286 C 460 284.900, 460.450 284, 461 284 C 461.550 284, 462 284.450, 462 285 C 462 285.550, 462.863 286, 463.917 286 C 464.971 286, 466.035 286.562, 466.282 287.250 C 466.582 288.085, 467.441 287.700, 468.872 286.090 C 470.049 284.764, 471.347 284.038, 471.756 284.477 C 472.165 284.915, 471.938 285.475, 471.250 285.720 C 470.563 285.966, 470 287.442, 470 289 C 470 290.558, 469.438 292.034, 468.750 292.280 C 468.023 292.539, 467.871 293.097, 468.387 293.613 C 468.903 294.129, 469.461 293.977, 469.720 293.250 C 469.966 292.562, 471.029 292, 472.083 292 C 473.653 292, 474 291.275, 474 288 C 474 284.667, 474.333 284, 476 284 C 477.100 284, 478 284.450, 478 285 C 478 285.550, 478.900 286, 480 286 C 481.100 286, 482 285.550, 482 285 C 482 284.450, 481.100 284, 480 284 C 478.667 284, 478 283.333, 478 282 C 478 280.870, 478.667 280, 479.533 280 C 482.053 280, 488 273.350, 488 270.533 C 488 269.140, 488.450 268, 489 268 C 489.550 268, 490 267.100, 490 266 C 490 264.900, 489.550 264, 489 264 C 488.418 264, 488 260.694, 488 256.083 C 488 250.728, 487.596 247.978, 486.750 247.583 C 485.750 247.117, 485.750 246.883, 486.750 246.417 C 488.249 245.717, 488.482 236, 487 236 C 486.429 236, 486 233, 486 229 C 486 225, 485.571 222, 485 222 C 484.450 222, 484 220.650, 484 219 C 484 217.350, 483.550 216, 483 216 C 482.450 216, 482 214.650, 482 213 C 482 211.350, 481.550 210, 481 210 C 480.450 210, 480 208.200, 480 206 C 480 203.800, 479.550 202, 479 202 C 478.450 202, 478 200.200, 478 198 C 478 195.800, 477.550 194, 477 194 C 476.450 194, 476 192.650, 476 191 C 476 189.350, 475.550 188, 475 188 C 474.450 188, 474 187.100, 474 186 C 474 184.900, 473.550 184, 473 184 C 472.450 184, 472 182.650, 472 181 C 472 179.350, 471.550 178, 471 178 C 470.450 178, 470 177.100, 470 176 C 470 174.900, 469.550 174, 469 174 C 468.450 174, 468 172.650, 468 171 C 468 169.350, 467.550 168, 467 168 C 466.450 168, 466 166.650, 466 165 C 466 163.350, 465.550 162, 465 162 C 464.450 162, 464 161.199, 464 160.221 C 464 159.242, 463.100 157.793, 462 157 C 460.900 156.207, 460 154.758, 460 153.779 C 460 152.801, 459.550 152, 459 152 C 458.450 152, 458 151.100, 458 150 C 458 148.900, 457.550 148, 457 148 C 456.450 148, 456 147.199, 456 146.221 C 456 145.242, 455.100 143.793, 454 143 C 452.900 142.207, 452 140.758, 452 139.779 C 452 138.801, 451.550 138, 451 138 C 450.450 138, 450 137.100, 450 136 C 450 134.900, 449.550 134, 449 134 C 448.450 134, 448 131.750, 448 129 C 448 126.250, 447.550 124, 447 124 C 446.450 124, 446 122.200, 446 120 C 446 117.800, 445.550 116, 445 116 C 444.450 116, 444 115.100, 444 114 C 444 112.900, 443.550 112, 443 112 C 442.450 112, 442 111.100, 442 110 C 442 108.900, 441.550 108, 441 108 C 440.450 108, 440 107.100, 440 106 C 440 104.900, 439.550 104, 439 104 C 438.450 104, 438 103.199, 438 102.221 C 438 101.242, 437.100 99.793, 436 99 C 434.900 98.207, 434 96.938, 434 96.180 C 434 95.423, 432.650 93.541, 431 92 C 429.350 90.459, 428 88.700, 428 88.091 C 428 86.645, 397.355 56, 395.909 56 C 395.300 56, 393.541 54.650, 392 53 C 390.459 51.350, 388.577 50, 387.820 50 C 387.062 50, 385.793 49.100, 385 48 C 384.207 46.900, 382.857 46, 382 46 C 381.143 46, 379.793 45.100, 379 44 C 378.207 42.900, 376.857 42, 376 42 C 375.143 42, 373.793 41.100, 373 40 C 372.207 38.900, 370.758 38, 369.779 38 C 368.801 38, 368 37.550, 368 37 C 368 36.450, 367.100 36, 366 36 C 364.900 36, 364 35.550, 364 35 C 364 34.450, 363.100 34, 362 34 C 360.900 34, 360 33.550, 360 33 C 360 32.450, 359.100 32, 358 32 C 356.900 32, 356 31.550, 356 31 C 356 30.450, 355.100 30, 354 30 C 352.900 30, 352 29.550, 352 29 C 352 28.450, 351.100 28, 350 28 C 348.900 28, 348 27.550, 348 27 C 348 26.450, 347.100 26, 346 26 C 344.900 26, 344 25.550, 344 25 C 344 24.450, 342.650 24, 341 24 C 339.350 24, 338 23.550, 338 23 C 338 22.450, 337.100 22, 336 22 C 334.900 22, 334 21.550, 334 21 C 334 20.450, 332.650 20, 331 20 C 329.350 20, 328 19.550, 328 19 C 328 18.450, 326.200 18, 324 18 C 321.800 18, 320 17.550, 320 17 C 320 16.450, 318.650 16, 317 16 C 315.350 16, 314 15.550, 314 15 C 314 14.450, 311.750 14, 309 14 C 306.250 14, 304 13.550, 304 13 C 304 12.450, 301.750 12, 299 12 C 296.250 12, 294 11.550, 294 11 C 294 10.450, 292.200 10, 290 10 C 287.800 10, 286 9.550, 286 9 C 286 8.450, 287.800 8, 290 8 C 292.200 8, 294 8.450, 294 9 C 294 9.550, 296.212 10, 298.917 10 C 301.913 10, 304.031 10.488, 304.341 11.250 C 304.723 12.194, 305.130 12.133, 306 11 C 306.870 9.867, 307.277 9.806, 307.659 10.750 C 307.944 11.451, 309.887 12, 312.083 12 C 314.238 12, 316 12.450, 316 13 C 316 13.550, 317.350 14, 319 14 C 320.650 14, 322 14.450, 322 15 C 322 15.550, 323.350 16, 325 16 C 326.650 16, 328 16.450, 328 17 C 328 17.550, 329.350 18, 331 18 C 332.650 18, 334 17.550, 334 17 C 334 16.450, 334.900 16, 336 16 C 337.100 16, 338 16.450, 338 17 C 338 17.550, 337.100 18, 336 18 C 334.900 18, 334 18.450, 334 19 C 334 19.550, 335.350 20, 337 20 C 338.650 20, 340 20.450, 340 21 C 340 21.550, 341.350 22, 343 22 C 344.650 22, 346 22.450, 346 23 C 346 23.550, 346.900 24, 348 24 C 349.100 24, 350 24.450, 350 25 C 350 26.456, 355.752 26.227, 356.280 24.750 C 356.539 24.023, 357.097 23.871, 357.613 24.387 C 358.129 24.903, 357.977 25.461, 357.250 25.720 C 355.276 26.425, 355.794 28, 358 28 C 359.100 28, 360 28.450, 360 29 C 360 29.550, 360.900 30, 362 30 C 363.100 30, 364 29.550, 364 29 C 364 28.450, 364.900 28, 366 28 C 367.152 28, 368 28.667, 368 29.571 C 368 32.908, 373.296 35.611, 374.247 32.759 C 374.798 31.107, 378 34.238, 378 36.429 C 378 38.304, 379.593 38.516, 380.417 36.750 C 380.883 35.750, 381.117 35.750, 381.583 36.750 C 381.904 37.438, 383.029 38, 384.083 38 C 385.137 38, 386 38.450, 386 39 C 386 39.550, 386.801 40, 387.779 40 C 388.758 40, 390.207 40.900, 391 42 C 391.793 43.100, 393.143 44, 394 44 C 394.857 44, 396.207 44.900, 397 46 C 397.793 47.100, 399.143 48, 400 48 C 400.857 48, 402.207 48.900, 403 50 C 403.793 51.100, 405.062 52, 405.820 52 C 406.577 52, 408.459 53.350, 410 55 C 411.541 56.650, 413.326 58, 413.966 58 C 414.606 58, 417.321 60.250, 420 63 C 422.679 65.750, 425.356 68, 425.949 68 C 427.352 68, 444 84.640, 444 86.041 C 444 86.629, 446.700 89.761, 450 93 C 453.300 96.239, 456 99.409, 456 100.043 C 456 100.678, 457.350 102.459, 459 104 C 460.650 105.541, 462 107.423, 462 108.180 C 462 108.938, 462.900 110.207, 464 111 C 465.100 111.793, 466 113.143, 466 114 C 466 114.857, 466.900 116.207, 468 117 C 469.100 117.793, 470 119.143, 470 120 C 470 120.857, 470.900 122.207, 472 123 C 473.100 123.793, 474 125.242, 474 126.221 C 474 127.199, 474.450 128, 475 128 C 475.550 128, 476 128.801, 476 129.779 C 476 130.758, 476.900 132.207, 478 133 C 479.100 133.793, 480 135.242, 480 136.221 C 480 137.199, 480.450 138, 481 138 C 481.550 138, 482 138.900, 482 140 C 482 141.100, 482.450 142, 483 142 C 483.550 142, 484 142.900, 484 144 C 484 145.100, 484.450 146, 485 146 C 485.550 146, 486 146.900, 486 148 C 486 149.100, 486.450 150, 487 150 C 487.550 150, 488 150.900, 488 152 C 488 153.100, 488.450 154, 489 154 C 489.550 154, 490 155.350, 490 157 C 490 158.650, 490.450 160, 491 160 C 491.550 160, 492 160.900, 492 162 C 492 163.100, 492.450 164, 493 164 C 493.550 164, 494 165.350, 494 167 C 494 168.650, 494.450 170, 495 170 C 495.550 170, 496 171.350, 496 173 C 496 174.650, 496.450 176, 497 176 C 497.550 176, 498 177.350, 498 179 C 498 180.650, 498.450 182, 499 182 C 499.550 182, 500 183.350, 500 185 C 500 186.650, 500.450 188, 501 188 C 501.550 188, 502 189.800, 502 192 C 502 194.200, 502.450 196, 503 196 C 503.550 196, 504 197.800, 504 200 C 504 202.200, 504.450 204, 505 204 C 505.550 204, 506 203.797, 506 203.549 C 506 201.388, 503.113 190.203, 499.792 179.500 C 490.645 150.016, 476.490 122.954, 457.161 98 C 448.931 87.374, 426.099 64.361, 415.510 56.018 C 362.570 14.307, 294.207 -5.771, 230 1.535 M 256 6 C 256 8.369, 256.634 8.509, 258.571 6.571 C 260.509 4.634, 260.369 4, 258 4 C 256.667 4, 256 4.667, 256 6 M 218 8 C 218 9.333, 218.667 10, 220 10 C 222.369 10, 222.509 9.366, 220.571 7.429 C 218.634 5.491, 218 5.631, 218 8 M 236 7 C 236 7.550, 236.900 8, 238 8 C 239.100 8, 240 7.550, 240 7 C 240 6.450, 239.100 6, 238 6 C 236.900 6, 236 6.450, 236 7 M 246 7 C 246 7.550, 247.800 8, 250 8 C 252.200 8, 254 7.550, 254 7 C 254 6.450, 252.200 6, 250 6 C 247.800 6, 246 6.450, 246 7 M 206 11 C 206 11.550, 204.650 12, 203 12 C 201.350 12, 200 12.450, 200 13 C 200 14.518, 204.948 14.195, 206.571 12.571 C 208.247 10.896, 208.396 10, 207 10 C 206.450 10, 206 10.450, 206 11 M 190 15 C 190 15.550, 188.650 16, 187 16 C 185.350 16, 184 16.450, 184 17 C 184 18.457, 176.273 18.227, 175.583 16.750 C 175.117 15.750, 174.883 15.750, 174.417 16.750 C 174.096 17.438, 172.521 18, 170.917 18 C 169.313 18, 168 18.450, 168 19 C 168 19.550, 166.650 20, 165 20 C 163.350 20, 162 20.450, 162 21 C 162 21.550, 161.100 22, 160 22 C 158.900 22, 158 22.450, 158 23 C 158 23.550, 156.650 24, 155 24 C 153.350 24, 152 24.450, 152 25 C 152 25.550, 151.100 26, 150 26 C 148.900 26, 148 26.450, 148 27 C 148 27.550, 147.100 28, 146 28 C 144.900 28, 144 28.450, 144 29 C 144 29.550, 143.100 30, 142 30 C 140.900 30, 140 30.450, 140 31 C 140 31.550, 139.100 32, 138 32 C 136.900 32, 136 32.450, 136 33 C 136 33.550, 135.100 34, 134 34 C 132.900 34, 132 34.450, 132 35 C 132 35.550, 131.199 36, 130.221 36 C 129.242 36, 127.793 36.900, 127 38 C 126.207 39.100, 124.758 40, 123.779 40 C 122.801 40, 122 40.450, 122 41 C 122 41.550, 121.199 42, 120.221 42 C 119.242 42, 117.793 42.900, 117 44 C 116.207 45.100, 114.857 46, 114 46 C 113.143 46, 111.793 46.900, 111 48 C 110.207 49.100, 108.938 50, 108.180 50 C 107.423 50, 105.541 51.350, 104 53 C 102.459 54.650, 100.674 56, 100.034 56 C 99.394 56, 96.679 58.250, 94 61 C 91.321 63.750, 88.645 66, 88.053 66 C 86.648 66, 66 86.648, 66 88.053 C 66 88.645, 63.750 91.321, 61 94 C 58.250 96.679, 56 99.394, 56 100.034 C 56 100.674, 54.650 102.459, 53 104 C 51.350 105.541, 50 107.423, 50 108.180 C 50 108.938, 49.100 110.207, 48 111 C 46.900 111.793, 46 113.143, 46 114 C 46 114.857, 45.100 116.207, 44 117 C 42.900 117.793, 42 119.143, 42 120 C 42 120.857, 41.100 122.207, 40 123 C 38.900 123.793, 38 125.242, 38 126.221 C 38 127.199, 37.550 128, 37 128 C 36.450 128, 36 128.801, 36 129.779 C 36 130.758, 35.100 132.207, 34 133 C 32.900 133.793, 32 135.242, 32 136.221 C 32 137.199, 31.550 138, 31 138 C 30.450 138, 30 138.900, 30 140 C 30 141.100, 29.550 142, 29 142 C 28.450 142, 28 142.900, 28 144 C 28 145.100, 27.550 146, 27 146 C 26.450 146, 26 146.900, 26 148 C 26 149.100, 25.550 150, 25 150 C 24.450 150, 24 151.350, 24 153 C 24 154.650, 23.550 156, 23 156 C 22.450 156, 22 156.900, 22 158 C 22 159.100, 21.550 160, 21 160 C 20.450 160, 20 160.900, 20 162 C 20 163.100, 19.550 164, 19 164 C 18.450 164, 18 165.350, 18 167 C 18 168.650, 17.550 170, 17 170 C 16.450 170, 16 171.350, 16 173 C 16 174.650, 15.550 176, 15 176 C 14.450 176, 14 177.350, 14 179 C 14 180.650, 13.550 182, 13 182 C 12.450 182, 12 183.350, 12 185 C 12 186.650, 11.550 188, 11 188 C 10.450 188, 10 189.800, 10 192 C 10 194.200, 9.550 196, 9 196 C 8.450 196, 8 198.250, 8 201 C 8 203.750, 7.550 206, 7 206 C 6.444 206, 6 208.667, 6 212 C 6 215.333, 5.556 218, 5 218 C 4.417 218, 4 221.333, 4 226 C 4 230.667, 3.583 234, 3 234 C 2.364 234, 2 242, 2 256 C 2 270, 2.364 278, 3 278 C 3.583 278, 4 281.333, 4 286 C 4 290.667, 4.417 294, 5 294 C 5.556 294, 6 296.667, 6 300 C 6 303.333, 6.444 306, 7 306 C 7.550 306, 8 307.800, 8 310 C 8 312.200, 8.450 314, 9 314 C 9.550 314, 10 315.800, 10 318 C 10 320.200, 10.450 322, 11 322 C 11.550 322, 12 323.350, 12 325 C 12 326.650, 12.450 328, 13 328 C 13.550 328, 14 329.800, 14 332 C 14 334.200, 14.450 336, 15 336 C 15.550 336, 16 336.900, 16 338 C 16 339.100, 16.450 340, 17 340 C 17.550 340, 18 341.350, 18 343 C 18 344.650, 18.450 346, 19 346 C 19.550 346, 20 347.350, 20 349 C 20 350.650, 20.450 352, 21 352 C 21.550 352, 22 352.900, 22 354 C 22 355.100, 22.450 356, 23 356 C 23.550 356, 24 356.900, 24 358 C 24 359.100, 24.450 360, 25 360 C 25.550 360, 26 360.900, 26 362 C 26 363.100, 26.450 364, 27 364 C 27.550 364, 28 364.900, 28 366 C 28 367.100, 28.450 368, 29 368 C 29.550 368, 30 368.900, 30 370 C 30 371.100, 30.450 372, 31 372 C 31.550 372, 32 372.900, 32 374 C 32 375.100, 32.450 376, 33 376 C 33.550 376, 34 376.900, 34 378 C 34 379.100, 34.450 380, 35 380 C 35.550 380, 36 380.900, 36 382 C 36 383.100, 36.450 384, 37 384 C 37.550 384, 38 384.801, 38 385.779 C 38 386.758, 38.900 388.207, 40 389 C 41.100 389.793, 42 391.143, 42 392 C 42 392.857, 42.900 394.207, 44 395 C 45.100 395.793, 46 397.143, 46 398 C 46 398.857, 46.900 400.207, 48 401 C 49.100 401.793, 50 403.062, 50 403.820 C 50 404.577, 51.350 406.459, 53 408 C 54.650 409.541, 56 411.326, 56 411.966 C 56 412.606, 58.250 415.321, 61 418 C 63.750 420.679, 66 423.355, 66 423.948 C 66 425.354, 84.646 444, 86.052 444 C 86.645 444, 89.321 446.250, 92 449 C 94.679 451.750, 97.394 454, 98.034 454 C 98.674 454, 100.459 455.350, 102 457 C 103.541 458.650, 105.341 460, 106 460 C 106.659 460, 108.459 461.350, 110 463 C 111.541 464.650, 113.522 466, 114.401 466 C 115.281 466, 116 466.450, 116 467 C 116 467.550, 116.801 468, 117.779 468 C 118.758 468, 120.207 468.900, 121 470 C 121.793 471.100, 123.242 472, 124.221 472 C 125.199 472, 126 472.450, 126 473 C 126 473.550, 126.801 474, 127.779 474 C 128.758 474, 130.207 474.900, 131 476 C 131.793 477.100, 133.242 478, 134.221 478 C 135.199 478, 136 478.450, 136 479 C 136 479.550, 136.900 480, 138 480 C 139.100 480, 140 480.450, 140 481 C 140 481.550, 140.900 482, 142 482 C 143.100 482, 144 482.450, 144 483 C 144 483.550, 144.900 484, 146 484 C 147.100 484, 148 484.450, 148 485 C 148 485.550, 148.900 486, 150 486 C 151.100 486, 152 486.450, 152 487 C 152 487.550, 153.350 488, 155 488 C 156.650 488, 158 488.450, 158 489 C 158 489.550, 158.900 490, 160 490 C 161.100 490, 162 490.450, 162 491 C 162 491.550, 163.350 492, 165 492 C 166.650 492, 168 492.450, 168 493 C 168 493.550, 169.350 494, 171 494 C 172.650 494, 174 494.450, 174 495 C 174 495.550, 175.350 496, 177 496 C 178.650 496, 180 496.450, 180 497 C 180 497.550, 181.350 498, 183 498 C 184.650 498, 186 498.450, 186 499 C 186 499.550, 187.800 500, 190 500 C 192.200 500, 194 500.450, 194 501 C 194 501.550, 196.250 502, 199 502 C 201.750 502, 204 502.450, 204 503 C 204 503.550, 205.800 504, 208 504 C 210.200 504, 212 504.450, 212 505 C 212 506.482, 221.717 506.249, 222.417 504.750 C 222.883 503.750, 223.117 503.750, 223.583 504.750 C 223.904 505.438, 225.029 506, 226.083 506 C 227.137 506, 228 506.450, 228 507 C 228 508.572, 257.701 508.327, 258.341 506.750 C 258.722 505.809, 259.114 505.871, 259.924 507 C 260.880 508.333, 261.120 508.333, 262.076 507 C 262.886 505.871, 263.278 505.809, 263.659 506.750 C 264.261 508.231, 268 508.447, 268 507 C 268 506.400, 272 506, 278 506 C 284 506, 288 505.600, 288 505 C 288 504.450, 290.250 504, 293 504 C 295.750 504, 298 503.550, 298 503 C 298 502.450, 299.800 502, 302 502 C 304.200 502, 306 501.550, 306 501 C 306 500.450, 307.313 500, 308.917 500 C 310.521 500, 312.062 499.437, 312.341 498.750 C 312.723 497.806, 313.130 497.867, 314 499 C 314.870 500.133, 315.277 500.194, 315.659 499.250 C 315.938 498.562, 317.479 498, 319.083 498 C 320.688 498, 322 497.550, 322 497 C 322 496.450, 323.701 496, 325.779 496 C 328.411 496, 329.996 495.393, 331 494 C 332.004 492.607, 333.589 492, 336.221 492 C 338.299 492, 340 491.550, 340 491 C 340 490.450, 340.900 490, 342 490 C 343.100 490, 344 489.550, 344 489 C 344 488.450, 344.900 488, 346 488 C 347.100 488, 348 487.550, 348 487 C 348 486.450, 348.707 486, 349.571 486 C 352.177 486, 354 483.353, 354 479.571 C 354 477.607, 354.450 476, 355 476 C 355.556 476, 356 473.333, 356 470 C 356 464.667, 356.222 464, 358 464 C 359.100 464, 360 463.550, 360 463 C 360 462.450, 359.550 462, 359 462 C 358.450 462, 358 461.550, 358 461 C 358 460.450, 358.900 460, 360 460 C 361.100 460, 362 459.550, 362 459 C 362 458.450, 361.550 458, 361 458 C 359.232 458, 359.934 454.489, 362 453 C 363.100 452.207, 364 451.208, 364 450.779 C 364 450.351, 363.100 450, 362 450 C 360.900 450, 360 449.550, 360 449 C 360 448.450, 360.450 448, 361 448 C 361.550 448, 362 447.100, 362 446 C 362 444.444, 361.333 444, 359 444 C 357.350 444, 356 444.450, 356 445 C 356 445.550, 355.550 446, 355 446 C 354.450 446, 354 445.100, 354 444 C 354 442.900, 354.450 442, 355 442 C 356.529 442, 356.190 439.047, 354.462 437.319 C 353.078 435.935, 352.741 435.993, 351.095 437.891 C 350.089 439.051, 348.531 440, 347.633 440 C 346.735 440, 346 440.450, 346 441 C 346 441.550, 344.650 442, 343 442 C 341.350 442, 340 442.450, 340 443 C 340 443.550, 338.650 444, 337 444 C 335.350 444, 334 444.450, 334 445 C 334 445.550, 334.450 446, 335 446 C 336.485 446, 336.210 448.933, 334.571 450.571 C 332.810 452.332, 328.348 452.448, 327.659 450.750 C 327.277 449.806, 326.870 449.867, 326 451 C 325.130 452.133, 324.723 452.194, 324.341 451.250 C 324.033 450.492, 321.929 450, 319 450 C 316.111 450, 313.932 450.503, 313.583 451.250 C 313.117 452.250, 312.883 452.250, 312.417 451.250 C 311.663 449.634, 308.291 449.628, 307.753 451.241 C 307.066 453.303, 304 449.489, 304 446.571 C 304 444.667, 303.481 444, 302 444 C 300.900 444, 300 444.450, 300 445 C 300 445.550, 300.450 446, 301 446 C 301.550 446, 302 446.450, 302 447 C 302 447.550, 300.650 448, 299 448 C 297.350 448, 296 448.450, 296 449 C 296 449.550, 296.450 450, 297 450 C 297.550 450, 298 450.450, 298 451 C 298 451.550, 297.100 452, 296 452 C 294.667 452, 294 451.333, 294 450 C 294 448.900, 293.550 448, 293 448 C 292.450 448, 292 449.350, 292 451 C 292 453.823, 291.769 454, 288.083 454 C 285.928 454, 283.904 453.438, 283.583 452.750 C 283.117 451.750, 282.883 451.750, 282.417 452.750 C 282.096 453.437, 281.136 454, 280.284 454 C 279.432 454, 277.834 455.013, 276.733 456.250 C 275.375 457.776, 274.586 458.098, 274.282 457.250 C 274.035 456.562, 272.971 456, 271.917 456 C 270.863 456, 270 455.550, 270 455 C 270 454.450, 267.750 454, 265 454 L 260 454 260 450 C 260 447.800, 260.450 446, 261 446 C 261.550 446, 262 446.450, 262 447 C 262 447.550, 263.157 448, 264.571 448 C 267.465 448, 270 450.068, 270 452.429 C 270 454.390, 272.669 454.474, 274.571 452.571 C 276.509 450.634, 276.369 450, 274 450 C 272.900 450, 272 449.550, 272 449 C 272 448.450, 272.450 448, 273 448 C 273.550 448, 274 446.200, 274 444 C 274 440.725, 274.347 440, 275.917 440 C 276.971 440, 278.019 440.558, 278.247 441.241 C 278.543 442.128, 279.168 441.975, 280.440 440.703 C 282.145 438.998, 282.125 438.843, 279.949 436.956 C 278.701 435.873, 278.038 434.653, 278.477 434.244 C 278.915 433.835, 279.475 434.063, 279.720 434.750 C 279.966 435.437, 280.992 436, 282 436 C 283.008 436, 284.034 436.562, 284.280 437.250 C 284.525 437.938, 285.112 438.138, 285.584 437.696 C 286.056 437.253, 285.827 436.511, 285.075 436.046 C 283.993 435.378, 284.251 434.658, 286.308 432.601 C 289.434 429.475, 290 429.383, 290 432 C 290 433.100, 289.550 434, 289 434 C 288.450 434, 288 434.450, 288 435 C 288 436.455, 293.741 436.228, 294.341 434.750 C 294.730 433.791, 295.077 433.829, 295.833 434.912 C 296.672 436.115, 297.054 436.089, 298.409 434.734 C 300.632 432.511, 300.415 430, 298 430 C 296.900 430, 296 429.550, 296 429 C 296 428.450, 296.900 428, 298 428 C 299.304 428, 300 427.333, 300 426.083 C 300 425.029, 300.563 423.938, 301.250 423.659 C 302.209 423.270, 302.171 422.923, 301.088 422.167 C 299.885 421.328, 299.911 420.946, 301.266 419.591 C 303.518 417.339, 304 417.588, 304 421 C 304 423.833, 304.222 424, 308 424 C 310.970 424, 312 423.595, 312 422.429 C 312 420.408, 314.408 418, 316.429 418 C 317.293 418, 318 417.293, 318 416.429 C 318 414.238, 321.202 411.107, 321.753 412.759 C 322.542 415.126, 324 413.985, 324 411 C 324 408.667, 324.444 408, 326 408 C 327.100 408, 328 407.550, 328 407 C 328 406.450, 327.550 406, 327 406 C 326.450 406, 326 405.550, 326 405 C 326 404.450, 326.863 404, 327.917 404 C 328.971 404, 330.062 403.438, 330.341 402.750 C 330.724 401.804, 331.096 401.858, 331.869 402.971 C 332.431 403.780, 333.240 404.093, 333.667 403.667 C 334.093 403.240, 333.827 402.511, 333.075 402.046 C 331.993 401.378, 332.251 400.658, 334.308 398.601 C 335.739 397.170, 337.605 396, 338.455 396 C 339.305 396, 340 395.265, 340 394.367 C 340 393.469, 340.998 391.869, 342.218 390.811 C 344 389.266, 344.164 388.720, 343.056 388.034 C 341.903 387.322, 341.938 386.919, 343.266 385.591 C 344.141 384.716, 345.564 384, 346.429 384 C 347.293 384, 348 383.550, 348 383 C 348 382.450, 347.100 382, 346 382 C 344.900 382, 344 382.450, 344 383 C 344 383.550, 341.750 384, 339 384 C 334.667 384, 334 383.733, 334 382 C 334 380.444, 334.667 380, 337 380 C 340.355 380, 340.654 379.511, 338.571 377.429 C 336.669 375.526, 334 375.610, 334 377.571 C 334 379.592, 331.592 382, 329.571 382 C 327.707 382, 327.464 380.345, 329.241 379.753 C 331.681 378.940, 327.240 376, 323.571 376 C 321.607 376, 320 375.550, 320 375 C 320 374.450, 319.100 374, 318 374 C 316.900 374, 316 373.550, 316 373 C 316 372.450, 315.100 372, 314 372 C 312.340 372, 312 371.333, 312 368.083 C 312 365.887, 311.451 363.944, 310.750 363.659 C 309.804 363.276, 309.858 362.904, 310.971 362.131 C 311.780 361.569, 312.093 360.760, 311.667 360.333 C 311.240 359.907, 310.511 360.173, 310.046 360.925 C 309.378 362.007, 308.658 361.749, 306.601 359.692 C 303.994 357.084, 303.126 354, 305 354 C 305.550 354, 306 353.100, 306 352 C 306 349.794, 307.575 349.276, 308.280 351.250 C 308.525 351.938, 309.085 352.165, 309.523 351.756 C 309.962 351.347, 309.299 350.127, 308.051 349.044 C 306.009 347.273, 305.935 346.922, 307.319 345.538 C 309.619 343.238, 310.783 343.611, 315 348 C 317.114 350.200, 319.103 352, 319.422 352 C 319.740 352, 320 350.650, 320 349 C 320 346.667, 319.556 346, 318 346 C 316.900 346, 316 345.550, 316 345 C 316 344.450, 317.157 344, 318.571 344 C 320.888 344, 324 342.035, 324 340.571 C 324 340.257, 323.100 340, 322 340 C 320.667 340, 320 339.333, 320 338 C 320 336.667, 319.333 336, 318 336 C 316.667 336, 316 335.333, 316 334 C 316 331.450, 317.162 331.450, 319 334 C 320.699 336.357, 322.592 336.551, 324.571 334.571 C 326.653 332.490, 326.341 330, 324 330 C 322.900 330, 322 330.450, 322 331 C 322 331.550, 321.550 332, 321 332 C 320.450 332, 320 330.650, 320 329 C 320 326.352, 319.657 326, 317.083 326 C 315.479 326, 313.904 326.562, 313.583 327.250 C 313.117 328.250, 312.883 328.250, 312.417 327.250 C 311.725 325.767, 308 325.557, 308 327 C 308 327.550, 306.650 328, 305 328 C 302.333 328, 302 328.333, 302 331 C 302 334.489, 301.028 334.813, 299 332 C 297.599 330.056, 296.411 330, 256.779 330 C 230.260 330, 216 329.650, 216 329 C 216 328.450, 213.750 328, 211 328 C 208.250 328, 206 327.550, 206 327 C 206 326.450, 205.199 326, 204.221 326 C 203.242 326, 201.793 325.100, 201 324 C 200.153 322.826, 198.411 322, 196.779 322 C 195.251 322, 194 321.550, 194 321 C 194 320.450, 194.450 320, 195 320 C 195.550 320, 196 319.550, 196 319 C 196 318.450, 194.200 318, 192 318 C 189.800 318, 188 317.550, 188 317 C 188 316.450, 187.100 316, 186 316 C 184.900 316, 184 315.550, 184 315 C 184 314.450, 182.650 314, 181 314 C 179.350 314, 178 313.550, 178 313 C 178 312.450, 176.200 312, 174 312 C 171.800 312, 170 311.550, 170 311 C 170 310.450, 167.750 310, 165 310 C 162.250 310, 160 309.550, 160 309 C 160 308.430, 157.028 308, 153.083 308 C 148.487 308, 145.997 307.581, 145.659 306.750 C 145.277 305.806, 144.870 305.867, 144 307 C 143.130 308.133, 142.723 308.194, 142.341 307.250 C 141.616 305.464, 138 305.700, 138 307.533 C 138 308.377, 136.440 310.627, 134.533 312.533 C 131.483 315.583, 130.453 316, 125.962 316 C 120.703 316, 118 317.503, 118 320.429 C 118 321.293, 117.550 322, 117 322 C 116.450 322, 116 324.250, 116 327 C 116 330.879, 116.352 332, 117.571 332 C 119.087 332, 122 334.255, 122 335.429 C 122 335.743, 121.100 336, 120 336 C 118.900 336, 118 336.450, 118 337 C 118 337.550, 117.100 338, 116 338 C 114.900 338, 114 338.450, 114 339 C 114 339.550, 113.138 340, 112.083 340 C 111.029 340, 109.966 340.562, 109.720 341.250 C 109.461 341.977, 108.903 342.129, 108.387 341.613 C 107.871 341.097, 108.023 340.539, 108.750 340.280 C 111.289 339.373, 109.891 338, 106.429 338 C 102.277 338, 98.781 340.628, 101.059 342.036 C 101.820 342.507, 102.056 343.253, 101.584 343.696 C 101.112 344.138, 100.525 343.938, 100.280 343.250 C 99.701 341.630, 96.339 341.630, 95.583 343.250 C 95.117 344.250, 94.883 344.250, 94.417 343.250 C 94.096 342.562, 92.521 342, 90.917 342 C 89.313 342, 88 341.550, 88 341 C 88 340.450, 86.200 340, 84 340 C 81.800 340, 80 339.550, 80 339 C 80 338.444, 77.333 338, 74 338 C 70.667 338, 68 337.556, 68 337 C 68 335.545, 62.259 335.772, 61.659 337.250 C 61.277 338.194, 60.870 338.133, 60 337 C 59.130 335.867, 58.723 335.806, 58.341 336.750 C 57.739 338.231, 54 338.447, 54 337 C 54 336.450, 52.650 336, 51 336 C 49.350 336, 48 336.450, 48 337 C 48 337.551, 45.407 338, 42.221 338 C 37.589 338, 36.155 337.603, 35 336 C 34.207 334.900, 32.758 334, 31.779 334 C 30.740 334, 30 333.260, 30 332.221 C 30 331.242, 29.100 329.793, 28 329 C 26.826 328.153, 26 326.411, 26 324.779 C 26 323.251, 25.550 322, 25 322 C 24.450 322, 24 320.650, 24 319 C 24 317.350, 23.550 316, 23 316 C 22.450 316, 22 314.200, 22 312 C 22 309.800, 21.550 308, 21 308 C 20.450 308, 20 305.750, 20 303 C 20 300.250, 19.550 298, 19 298 C 18.444 298, 18 295.333, 18 292 C 18 288.667, 17.556 286, 17 286 C 16.360 286, 16 277, 16 261 C 16 245, 16.360 236, 17 236 C 17.550 236, 18 233.750, 18 231 C 18 228.250, 18.450 226, 19 226 C 19.550 226, 20 223.750, 20 221 C 20 218.250, 20.450 216, 21 216 C 21.550 216, 22 214.200, 22 212 C 22 209.800, 22.450 208, 23 208 C 23.550 208, 24 206.650, 24 205 C 24 203.350, 24.450 202, 25 202 C 25.550 202, 26 201.100, 26 200 C 26 198.900, 26.450 198, 27 198 C 27.550 198, 28 196.650, 28 195 C 28 193.350, 28.450 192, 29 192 C 29.571 192, 30 189, 30 185 C 30 181, 30.429 178, 31 178 C 31.550 178, 32 175.750, 32 173 C 32 170.250, 32.450 168, 33 168 C 33.550 168, 34 166.650, 34 165 C 34 163.350, 34.450 162, 35 162 C 35.550 162, 36 160.650, 36 159 C 36 157.350, 36.450 156, 37 156 C 37.550 156, 38 155.199, 38 154.221 C 38 153.242, 38.900 151.793, 40 151 C 41.100 150.207, 42 148.758, 42 147.779 C 42 146.801, 42.450 146, 43 146 C 43.550 146, 44 145.100, 44 144 C 44 142.900, 44.450 142, 45 142 C 45.550 142, 46 141.281, 46 140.401 C 46 139.522, 47.350 137.541, 49 136 C 50.650 134.459, 52 132.577, 52 131.820 C 52 131.062, 52.900 129.793, 54 129 C 55.100 128.207, 56 126.857, 56 126 C 56 125.143, 56.900 123.793, 58 123 C 59.100 122.207, 60 120.857, 60 120 C 60 119.143, 60.900 117.793, 62 117 C 63.100 116.207, 64 114.938, 64 114.180 C 64 113.423, 65.350 111.541, 67 110 C 68.650 108.459, 70 106.659, 70 106 C 70 105.341, 71.350 103.541, 73 102 C 74.650 100.459, 76 98.668, 76 98.020 C 76 97.373, 77.800 95.114, 80 93 C 82.200 90.886, 84 88.667, 84 88.069 C 84 86.649, 110.649 60, 112.069 60 C 112.667 60, 114.886 58.200, 117 56 C 119.114 53.800, 121.454 52, 122.201 52 C 122.948 52, 124.207 51.100, 125 50 C 125.793 48.900, 127.143 48, 128 48 C 128.857 48, 130.207 47.100, 131 46 C 131.793 44.900, 133.143 44, 134 44 C 134.857 44, 136.207 43.100, 137 42 C 137.793 40.900, 139.143 40, 140 40 C 140.857 40, 142.207 39.100, 143 38 C 143.793 36.900, 145.242 36, 146.221 36 C 147.199 36, 148 35.550, 148 35 C 148 34.450, 148.900 34, 150 34 C 151.100 34, 152 33.550, 152 33 C 152 32.450, 152.900 32, 154 32 C 155.100 32, 156 31.550, 156 31 C 156 30.450, 156.900 30, 158 30 C 159.100 30, 160 29.550, 160 29 C 160 28.450, 160.900 28, 162 28 C 163.100 28, 164 27.550, 164 27 C 164 26.450, 165.350 26, 167 26 C 168.650 26, 170 25.550, 170 25 C 170 24.450, 170.900 24, 172 24 C 173.100 24, 174 23.550, 174 23 C 174 22.450, 175.350 22, 177 22 C 178.650 22, 180 21.550, 180 21 C 180 20.450, 181.350 20, 183 20 C 184.650 20, 186 19.550, 186 19 C 186 18.450, 187.350 18, 189 18 C 190.650 18, 192 17.550, 192 17 C 192 16.450, 193.350 16, 195 16 C 196.650 16, 198 15.550, 198 15 C 198 14.450, 196.200 14, 194 14 C 191.800 14, 190 14.450, 190 15 M 342 19 C 342 19.550, 342.450 20, 343 20 C 343.550 20, 344 19.550, 344 19 C 344 18.450, 343.550 18, 343 18 C 342.450 18, 342 18.450, 342 19 M 134 91 C 134 91.550, 131.750 92, 129 92 C 126.250 92, 124 92.450, 124 93 C 124 93.550, 122.200 94, 120 94 C 117.800 94, 116 94.450, 116 95 C 116 95.550, 114.650 96, 113 96 C 111.350 96, 110 96.450, 110 97 C 110 97.550, 108.650 98, 107 98 C 105.350 98, 104 98.450, 104 99 C 104 99.550, 103.319 100, 102.487 100 C 100.648 100, 82 118.448, 82 120.266 C 82 120.977, 81.100 122.207, 80 123 C 78.900 123.793, 78 125.143, 78 126 C 78 126.857, 77.100 128.207, 76 129 C 74.900 129.793, 74 131.242, 74 132.221 C 74 133.199, 73.550 134, 73 134 C 72.450 134, 72 134.900, 72 136 C 72 137.100, 71.550 138, 71 138 C 70.450 138, 70 138.900, 70 140 C 70 141.100, 69.550 142, 69 142 C 68.450 142, 68 142.900, 68 144 C 68 145.100, 67.550 146, 67 146 C 66.450 146, 66 146.900, 66 148 C 66 149.100, 65.550 150, 65 150 C 64.450 150, 64 150.900, 64 152 C 64 153.100, 63.550 154, 63 154 C 62.450 154, 62 155.350, 62 157 C 62 158.650, 61.550 160, 61 160 C 60.450 160, 60 160.900, 60 162 C 60 163.100, 59.550 164, 59 164 C 58.450 164, 58 165.350, 58 167 C 58 168.650, 57.550 170, 57 170 C 56.450 170, 56 171.350, 56 173 C 56 174.650, 55.550 176, 55 176 C 54.450 176, 54 177.350, 54 179 C 54 180.650, 53.550 182, 53 182 C 52.444 182, 52 184.667, 52 188 C 52 191.333, 51.556 194, 51 194 C 50.358 194, 50 203.667, 50 221 C 50 238.333, 50.358 248, 51 248 C 51.550 248, 52 250.250, 52 253 C 52 255.750, 52.450 258, 53 258 C 53.550 258, 54 258.685, 54 259.522 C 54 261.502, 64.498 272, 66.478 272 C 67.315 272, 68 272.450, 68 273 C 68 273.550, 69.350 274, 71 274 C 72.650 274, 74 274.450, 74 275 C 74 275.550, 75.800 276, 78 276 C 80.200 276, 82 276.450, 82 277 C 82 277.550, 82.900 278, 84 278 C 85.100 278, 86 278.450, 86 279 C 86 279.550, 87.800 280, 90 280 C 92.200 280, 94 280.450, 94 281 C 94 281.550, 95.350 282, 97 282 C 98.650 282, 100 282.450, 100 283 C 100 283.600, 104 284, 110 284 C 116 284, 120 283.600, 120 283 C 120 282.429, 123 282, 127 282 C 131 282, 134 282.429, 134 283 C 134 283.556, 136.667 284, 140 284 C 143.333 284, 146 283.556, 146 283 C 146 282.450, 146.900 282, 148 282 C 149.100 282, 150 281.550, 150 281 C 150 280.450, 150.900 280, 152 280 C 153.100 280, 154 279.550, 154 279 C 154 278.450, 155.350 278, 157 278 C 158.650 278, 160 277.550, 160 277 C 160 276.450, 160.710 276, 161.578 276 C 162.447 276, 164.886 274.200, 167 272 C 169.114 269.800, 171.349 268, 171.967 268 C 174.046 268, 178 263.114, 178 260.545 C 178 259.145, 178.450 258, 179 258 C 179.556 258, 180 255.333, 180 252 C 180 248.667, 180.444 246, 181 246 C 181.550 246, 182 243.750, 182 241 C 182 238.250, 182.450 236, 183 236 C 183.550 236, 184 235.100, 184 234 C 184 232.900, 184.450 232, 185 232 C 185.550 232, 186 230.200, 186 228 C 186 225.800, 186.450 224, 187 224 C 187.550 224, 188 223.100, 188 222 C 188 220.900, 188.450 220, 189 220 C 189.550 220, 190 218.650, 190 217 C 190 215.350, 190.450 214, 191 214 C 191.550 214, 192 212.200, 192 210 C 192 207.800, 192.450 206, 193 206 C 193.550 206, 194 203.750, 194 201 C 194 198.250, 194.450 196, 195 196 C 195.550 196, 196 194.650, 196 193 C 196 191.350, 196.450 190, 197 190 C 197.550 190, 198 189.100, 198 188 C 198 186.900, 198.450 186, 199 186 C 199.550 186, 200 185.100, 200 184 C 200 182.900, 200.450 182, 201 182 C 201.550 182, 202 181.100, 202 180 C 202 178.900, 202.450 178, 203 178 C 203.550 178, 204 177.100, 204 176 C 204 174.900, 204.450 174, 205 174 C 205.550 174, 206 172.650, 206 171 C 206 169.350, 206.450 168, 207 168 C 207.550 168, 208 166.650, 208 165 C 208 163.350, 208.450 162, 209 162 C 209.550 162, 210 161.100, 210 160 C 210 158.900, 210.450 158, 211 158 C 211.550 158, 212 157.100, 212 156 C 212 154.900, 212.450 154, 213 154 C 213.550 154, 214 152.650, 214 151 C 214 148.667, 214.444 148, 216 148 C 217.333 148, 218 147.333, 218 146 C 218 144.900, 218.450 144, 219 144 C 219.571 144, 220 141, 220 137 C 220 133, 219.571 130, 219 130 C 218.407 130, 218 126.333, 218 121 C 218 115.667, 217.593 112, 217 112 C 216.450 112, 216 111.100, 216 110 C 216 108.749, 215.333 108, 214.221 108 C 213.242 108, 211.793 107.100, 211 106 C 210.207 104.900, 208.758 104, 207.779 104 C 206.801 104, 206 103.550, 206 103 C 206 102.450, 205.100 102, 204 102 C 202.900 102, 202 101.550, 202 101 C 202 100.450, 200.650 100, 199 100 C 197.350 100, 196 99.550, 196 99 C 196 98.450, 194.650 98, 193 98 C 191.350 98, 190 97.550, 190 97 C 190 96.450, 188.200 96, 186 96 C 183.800 96, 182 95.550, 182 95 C 182 94.450, 180.650 94, 179 94 C 177.350 94, 176 93.550, 176 93 C 176 92.429, 173 92, 169 92 C 165 92, 162 91.571, 162 91 C 162 90.381, 156.667 90, 148 90 C 139.333 90, 134 90.381, 134 91 M 260 93 C 260 93.550, 257.481 94, 254.401 94 C 249.470 94, 248.468 94.358, 246 97 C 244.277 98.845, 242.197 100, 240.599 100 C 238.667 100, 238 100.513, 238 102 C 238 103.100, 238.450 104, 239 104 C 239.550 104, 240 104.900, 240 106 C 240 107.100, 240.450 108, 241 108 C 241.550 108, 242 109.800, 242 112 C 242 115.333, 242.333 116, 244 116 C 245.100 116, 246 115.550, 246 115 C 246 114.450, 246.450 114, 247 114 C 247.550 114, 248 115.350, 248 117 C 248 119.333, 248.444 120, 250 120 C 251.481 120, 252 120.667, 252 122.571 C 252 125.855, 254.795 128.950, 256 127 C 256.663 125.927, 257.121 125.978, 258.409 127.266 C 259.284 128.141, 260 129.564, 260 130.429 C 260 131.498, 260.932 132, 262.917 132 C 264.521 132, 266.096 132.563, 266.417 133.250 C 266.883 134.250, 267.117 134.250, 267.583 133.250 C 267.904 132.563, 268.992 132, 270 132 C 271.008 132, 272.019 131.442, 272.247 130.759 C 272.548 129.856, 273.116 129.973, 274.330 131.188 C 276.511 133.368, 276.437 134, 274 134 C 271.631 134, 271.491 134.634, 273.429 136.571 C 274.214 137.357, 276.271 138, 278 138 C 281.400 138, 284 139.919, 284 142.429 C 284 143.595, 285.030 144, 288 144 C 291.333 144, 292 143.667, 292 142 C 292 140.900, 292.450 140, 293 140 C 293.550 140, 294 140.450, 294 141 C 294 141.550, 294.900 142, 296 142 C 297.333 142, 298 141.333, 298 140 C 298 138.333, 298.667 138, 302 138 C 304.200 138, 306 138.450, 306 139 C 306 139.550, 306.863 140, 307.917 140 C 308.971 140, 310.096 140.563, 310.417 141.250 C 310.883 142.250, 311.117 142.250, 311.583 141.250 C 311.904 140.563, 313.029 140, 314.083 140 C 315.137 140, 316 139.550, 316 139 C 316 137.548, 321.726 137.771, 322.417 139.250 C 322.883 140.250, 323.117 140.250, 323.583 139.250 C 323.904 138.563, 325.725 138, 327.629 138 C 331.336 138, 336 141.596, 336 144.455 C 336 146.440, 336.735 146.407, 338.813 144.330 C 340.027 143.116, 340.144 142.548, 339.241 142.247 C 337.135 141.545, 337.768 138, 340 138 C 341.333 138, 342 137.333, 342 136 C 342 134.267, 342.667 134, 347 134 C 351.333 134, 352 133.733, 352 132 C 352 130.667, 351.333 130, 350 130 C 348.667 130, 348 129.333, 348 128 C 348 126.848, 347.333 126, 346.429 126 C 344.408 126, 342 123.592, 342 121.571 C 342 119.696, 340.407 119.484, 339.583 121.250 C 339.117 122.250, 338.883 122.250, 338.417 121.250 C 337.531 119.352, 334.618 119.755, 333 122 C 332.153 123.174, 330.411 124, 328.779 124 C 327.251 124, 326 124.450, 326 125 C 326 125.571, 323 126, 319 126 C 312.667 126, 312 125.810, 312 124 C 312 122.222, 312.667 122, 318 122 C 321.333 122, 324 121.556, 324 121 C 324 120.450, 324.707 120, 325.571 120 C 326.436 120, 327.818 119.325, 328.643 118.500 C 329.976 117.167, 329.976 116.833, 328.643 115.500 C 326.818 113.675, 324.375 113.554, 323.583 115.250 C 323.117 116.250, 322.883 116.250, 322.417 115.250 C 322.096 114.563, 320.971 114, 319.917 114 C 318.454 114, 318 113.290, 318 111 C 318 109.350, 317.550 108, 317 108 C 316.450 108, 316 107.100, 316 106 C 316 104.267, 315.333 104, 311 104 C 308.250 104, 306 103.550, 306 103 C 306 102.450, 304.650 102, 303 102 C 300.667 102, 300 101.556, 300 100 C 300 98.267, 299.333 98, 295 98 C 292.250 98, 290 97.550, 290 97 C 290 96.450, 288.650 96, 287 96 C 285.350 96, 284 96.450, 284 97 C 284 97.550, 283.100 98, 282 98 C 280.900 98, 280 97.550, 280 97 C 280 96.450, 278.299 96, 276.221 96 C 273.589 96, 272.004 95.393, 271 94 C 269.904 92.480, 268.411 92, 264.779 92 C 262.151 92, 260 92.450, 260 93 M 248 111 C 248 111.550, 248.450 112, 249 112 C 249.550 112, 250 111.550, 250 111 C 250 110.450, 249.550 110, 249 110 C 248.450 110, 248 110.450, 248 111 M 320 110.571 C 320 111.634, 323.091 114.243, 323.667 113.667 C 323.981 113.352, 323.542 112.399, 322.690 111.548 C 321.103 109.960, 320 109.560, 320 110.571 M 336 123 C 336 123.550, 335.293 124, 334.429 124 C 332.408 124, 330 126.408, 330 128.429 C 330 129.648, 331.121 130, 335 130 C 337.750 130, 340 129.715, 340 129.367 C 340 129.019, 339.028 127.891, 337.840 126.861 C 336.651 125.830, 336.038 124.653, 336.477 124.244 C 336.915 123.835, 337.475 124.063, 337.720 124.750 C 338.249 126.230, 342 126.449, 342 125 C 342 124.450, 341.100 124, 340 124 C 338.900 124, 338 123.550, 338 123 C 338 122.450, 337.550 122, 337 122 C 336.450 122, 336 122.450, 336 123 M 286.250 132.525 C 283.587 135.370, 283.464 136, 285.571 136 C 287.592 136, 290 133.592, 290 131.571 C 290 129.412, 288.904 129.691, 286.250 132.525 M 314 132.571 C 314 132.886, 314.643 133.786, 315.429 134.571 C 317.067 136.210, 320 136.485, 320 135 C 320 134.450, 319.100 134, 318 134 C 316.900 134, 316 133.550, 316 133 C 316 132.450, 315.550 132, 315 132 C 314.450 132, 314 132.257, 314 132.571 M 332 133 C 332 133.550, 332.450 134, 333 134 C 333.550 134, 334 133.550, 334 133 C 334 132.450, 333.550 132, 333 132 C 332.450 132, 332 132.450, 332 133 M 298 135 C 298 135.550, 298.450 136, 299 136 C 299.550 136, 300 135.550, 300 135 C 300 134.450, 299.550 134, 299 134 C 298.450 134, 298 134.450, 298 135 M 308 135 C 308 135.550, 308.900 136, 310 136 C 311.100 136, 312 135.550, 312 135 C 312 134.450, 311.100 134, 310 134 C 308.900 134, 308 134.450, 308 135 M 354 141 C 352.625 142.617, 350.712 143.954, 349.750 143.970 C 347.605 144.007, 347.466 146.609, 349.500 148.643 C 350.833 149.976, 351.167 149.976, 352.500 148.643 C 353.325 147.818, 354 146.535, 354 145.792 C 354 145.049, 354.900 143.793, 356 143 C 357.907 141.625, 358.828 137.967, 357.250 138.030 C 356.837 138.046, 355.375 139.383, 354 141 M 330 146 C 330 147.333, 330.667 148, 332 148 C 333.100 148, 334 148.450, 334 149 C 334 149.550, 335.350 150, 337 150 C 338.650 150, 340 149.550, 340 149 C 340 148.450, 338.749 148, 337.221 148 C 335.589 148, 333.847 147.174, 333 146 C 332.207 144.900, 331.208 144, 330.779 144 C 330.351 144, 330 144.900, 330 146 M 506 209.333 C 506 211.900, 506.455 214, 507.012 214 C 507.638 214, 507.775 212.379, 507.373 209.750 C 506.481 203.926, 506 203.780, 506 209.333 M 508.272 220 C 508.272 222.475, 508.467 223.488, 508.706 222.250 C 508.944 221.012, 508.944 218.988, 508.706 217.750 C 508.467 216.512, 508.272 217.525, 508.272 220 M 390 232 C 390 234.369, 390.634 234.509, 392.571 232.571 C 394.509 230.634, 394.369 230, 392 230 C 390.667 230, 390 230.667, 390 232 M 510.320 238 C 510.320 241.575, 510.502 243.037, 510.723 241.250 C 510.945 239.463, 510.945 236.537, 510.723 234.750 C 510.502 232.963, 510.320 234.425, 510.320 238 M 392 237 C 392 237.550, 392.900 238, 394 238 C 395.100 238, 396 237.550, 396 237 C 396 236.450, 395.100 236, 394 236 C 392.900 236, 392 236.450, 392 237 M 472 295 C 472 295.550, 472.450 296, 473 296 C 473.550 296, 474 295.550, 474 295 C 474 294.450, 473.550 294, 473 294 C 472.450 294, 472 294.450, 472 295 M 482 307 C 482 307.550, 482.450 308, 483 308 C 483.550 308, 484 307.550, 484 307 C 484 306.450, 483.550 306, 483 306 C 482.450 306, 482 306.450, 482 307 M 486 317 C 486 317.550, 486.450 318, 487 318 C 487.550 318, 488 317.550, 488 317 C 488 316.450, 487.550 316, 487 316 C 486.450 316, 486 316.450, 486 317 M 324 325 C 324 325.550, 324.450 326, 325 326 C 325.550 326, 326 325.550, 326 325 C 326 324.450, 325.550 324, 325 324 C 324.450 324, 324 324.450, 324 325 M 484 326 C 484 327.100, 484.450 328, 485 328 C 485.550 328, 486 327.100, 486 326 C 486 324.900, 485.550 324, 485 324 C 484.450 324, 484 324.900, 484 326 M 336 331 C 336 333.333, 335.556 334, 334 334 C 332.900 334, 332 333.550, 332 333 C 332 332.450, 331.100 332, 330 332 C 328.667 332, 328 332.667, 328 334 C 328 335.778, 328.667 336, 334 336 C 339.333 336, 340 335.778, 340 334 C 340 332.848, 340.667 332, 341.571 332 C 343.087 332, 346 329.745, 346 328.571 C 346 328.257, 343.750 328, 341 328 C 336.111 328, 336 328.067, 336 331 M 302 340 C 302 341.152, 302.667 342, 303.571 342 C 305.491 342, 308.497 339.164, 307.565 338.231 C 307.194 337.861, 306.431 338.220, 305.869 339.029 C 305.096 340.142, 304.724 340.196, 304.341 339.250 C 303.546 337.291, 302 337.786, 302 340 M 312 338.571 C 312 338.886, 312.643 339.786, 313.429 340.571 C 315.510 342.653, 318 342.341, 318 340 C 318 338.444, 317.333 338, 315 338 C 313.350 338, 312 338.257, 312 338.571 M 104 341 C 104 341.550, 104.450 342, 105 342 C 105.550 342, 106 341.550, 106 341 C 106 340.450, 105.550 340, 105 340 C 104.450 340, 104 340.450, 104 341 M 302 345 C 302 345.550, 302.450 346, 303 346 C 303.550 346, 304 345.550, 304 345 C 304 344.450, 303.550 344, 303 344 C 302.450 344, 302 344.450, 302 345 M 360 345 C 360 345.550, 360.450 346, 361 346 C 361.550 346, 362 345.550, 362 345 C 362 344.450, 361.550 344, 361 344 C 360.450 344, 360 344.450, 360 345 M 388 349 C 388 349.550, 388.450 350, 389 350 C 389.550 350, 390 349.550, 390 349 C 390 348.450, 389.550 348, 389 348 C 388.450 348, 388 348.450, 388 349 M 324 370.571 C 324 370.886, 324.643 371.786, 325.429 372.571 C 327.366 374.509, 328 374.369, 328 372 C 328 370.667, 327.333 370, 326 370 C 324.900 370, 324 370.257, 324 370.571 M 332 387 C 332 387.550, 332.900 388, 334 388 C 335.100 388, 336 387.550, 336 387 C 336 386.450, 335.100 386, 334 386 C 332.900 386, 332 386.450, 332 387 M 388 411 C 388 411.550, 388.450 412, 389 412 C 389.550 412, 390 411.550, 390 411 C 390 410.450, 389.550 410, 389 410 C 388.450 410, 388 410.450, 388 411 M 318 421 C 318 421.550, 318.450 422, 319 422 C 319.550 422, 320 421.550, 320 421 C 320 420.450, 319.550 420, 319 420 C 318.450 420, 318 420.450, 318 421 M 390 425 C 390 425.550, 390.450 426, 391 426 C 391.550 426, 392 425.550, 392 425 C 392 424.450, 391.550 424, 391 424 C 390.450 424, 390 424.450, 390 425 M 280 429 C 280 429.550, 280.450 430, 281 430 C 281.550 430, 282 429.550, 282 429 C 282 428.450, 281.550 428, 281 428 C 280.450 428, 280 428.450, 280 429 M 292 429 C 292 429.550, 292.450 430, 293 430 C 293.550 430, 294 429.550, 294 429 C 294 428.450, 293.550 428, 293 428 C 292.450 428, 292 428.450, 292 429 M 264 440 C 264 441.100, 264.450 442, 265 442 C 265.550 442, 266 441.100, 266 440 C 266 438.900, 265.550 438, 265 438 C 264.450 438, 264 438.900, 264 440 M 268 442 C 268 443.100, 268.450 444, 269 444 C 269.550 444, 270 443.100, 270 442 C 270 440.900, 269.550 440, 269 440 C 268.450 440, 268 440.900, 268 442 M 242 444 C 242 445.100, 242.450 446, 243 446 C 243.550 446, 244 445.100, 244 444 C 244 442.900, 243.550 442, 243 442 C 242.450 442, 242 442.900, 242 444 M 250 444 C 250 445.100, 249.550 446, 249 446 C 248.450 446, 248 446.900, 248 448 C 248 449.100, 248.450 450, 249 450 C 249.550 450, 250 449.293, 250 448.429 C 250 446.449, 252.858 443.506, 253.798 444.518 C 254.184 444.934, 253.938 445.475, 253.250 445.720 C 251.773 446.248, 251.544 452, 253 452 C 253.550 452, 254 453.800, 254 456 C 254 460.312, 255.812 461.331, 258.571 458.571 C 260.210 456.933, 260.485 454, 259 454 C 258.450 454, 258 453.137, 258 452.083 C 258 451.029, 257.438 449.904, 256.750 449.583 C 255.750 449.117, 255.750 448.883, 256.750 448.417 C 257.438 448.096, 258 446.521, 258 444.917 C 258 442.181, 257.752 442, 254 442 C 250.667 442, 250 442.333, 250 444 M 324 447 C 324 447.550, 324.450 448, 325 448 C 325.550 448, 326 447.550, 326 447 C 326 446.450, 325.550 446, 325 446 C 324.450 446, 324 446.450, 324 447 M 346 447 C 346 447.550, 346.450 448, 347 448 C 347.550 448, 348 447.550, 348 447 C 348 446.450, 347.550 446, 347 446 C 346.450 446, 346 446.450, 346 447 M 364 447 C 364 447.550, 364.450 448, 365 448 C 365.550 448, 366 447.550, 366 447 C 366 446.450, 365.550 446, 365 446 C 364.450 446, 364 446.450, 364 447 M 353.250 449.496 C 351.594 451.377, 351.674 452, 353.571 452 C 355.087 452, 358 449.745, 358 448.571 C 358 447.427, 354.466 448.114, 353.250 449.496 M 234 457 C 234 457.550, 234.450 458, 235 458 C 235.550 458, 236 457.550, 236 457 C 236 456.450, 235.550 456, 235 456 C 234.450 456, 234 456.450, 234 457 M 276 461 C 276 461.550, 276.450 462, 277 462 C 277.550 462, 278 461.550, 278 461 C 278 460.450, 277.550 460, 277 460 C 276.450 460, 276 460.450, 276 461 M 370 466 C 370 467.100, 369.550 468, 369 468 C 368.450 468, 368 469.350, 368 471 C 368 472.650, 367.550 474, 367 474 C 366.450 474, 366 474.450, 366 475 C 366 476.768, 369.511 476.066, 371 474 C 371.793 472.900, 373.242 472, 374.221 472 C 375.333 472, 376 471.251, 376 470 C 376 467.760, 372.473 467.142, 371.720 469.250 C 371.461 469.977, 370.903 470.129, 370.387 469.613 C 369.871 469.097, 370.023 468.539, 370.750 468.280 C 372.230 467.751, 372.449 464, 371 464 C 370.450 464, 370 464.900, 370 466" stroke="none" fill="black" fill-rule="evenodd"/>
</svg>