<svg width="101px" height="92px" viewBox="0 0 101 92" version="1.1" xmlns="http://www.w3.org/2000/svg" xmlns:xlink="http://www.w3.org/1999/xlink">
    <title>Group 2</title>
    <g id="Page-1" stroke="none" stroke-width="1" fill="none" fill-rule="evenodd">
        <g id="Group-2">
            <g id="Group">
                <path d="M7.90909091,78 L13.2727273,60.0386819 L35.5454545,60.0386819 L40.9090909,78 L49,78 L29.5454545,15 L19.4545455,15 L0,78 L7.90909091,78 Z M33,53 L15,53 L23.604878,23 L24.395122,23 L33,53 Z M66.6862745,78 L66.6862745,51.1031519 L76.8431373,51.1031519 L92.3986928,78 L101,78 L84.7124183,50.7421203 C89.8366013,50.260745 93.7407407,48.4856734 96.4248366,45.4169054 C99.1089325,42.3481375 100.45098,38.256447 100.45098,33.1418338 C100.45098,27.4255014 98.8954248,22.9727794 95.7843137,19.7836676 C92.6732026,16.5945559 88.1590414,15 82.2418301,15 L82.2418301,15 L59,15 L59,78 L66.6862745,78 Z M82,45 L67,45 L67,21 L82,21 C85.1547619,21 87.610119,21.828125 89.3660714,23.484375 C91.1220238,25.140625 92,27.5 92,30.5625 L92,30.5625 L92,35.4375 C92,38.5 91.1220238,40.859375 89.3660714,42.515625 C87.610119,44.171875 85.1547619,45 82,45 L82,45 Z" id="AR" fill="#1F1F1F" fill-rule="nonzero"></path>
                <rect id="Rectangle" x="4" y="0" width="92" height="92"></rect>
            </g>
        </g>
    </g>
</svg>